<?xml version="1.0" encoding="utf-8"?>
<!-- Generator: Adobe Illustrator 22.0.1, SVG Export Plug-In . SVG Version: 6.00 Build 0)  -->
<svg version="1.1" id="Capa_1" xmlns="http://www.w3.org/2000/svg" xmlns:xlink="http://www.w3.org/1999/xlink" x="0px" y="0px"
	 viewBox="0 0 480 480" style="enable-background:new 0 0 480 480;" xml:space="preserve">
<style type="text/css">
	.st0{fill:#42CF9F;}
	.st1{fill:#FFFFFF;}
</style>
<g>
	<path class="st0" d="M240,156c-66.3,0-120,53.7-120,120s53.7,120,120,120s120-53.7,120-120S306.3,156,240,156z M312,300h-48v48h-48
		v-48h-48v-48h48v-48h48v48h48V300z"/>
	<path class="st0" d="M160,28h160v24H160V28z"/>
</g>
<g>
	<path class="st1" d="M456,84H328V28c0-4.4-3.6-8-8-8H160c-4.4,0-8,3.6-8,8v56H24C10.7,84,0,94.7,0,108v328c0,13.3,10.7,24,24,24
		h432c13.3,0,24-10.7,24-24V108C480,94.7,469.3,84,456,84z M312,36v8H168v-8H312z M168,60h144v24H168V60z M464,436c0,4.4-3.6,8-8,8
		H24c-4.4,0-8-3.6-8-8V108c0-4.4,3.6-8,8-8h432c4.4,0,8,3.6,8,8V436z"/>
	<path class="st1" d="M312,244h-40v-40c0-4.4-3.6-8-8-8h-48c-4.4,0-8,3.6-8,8v40h-40c-4.4,0-8,3.6-8,8v48c0,4.4,3.6,8,8,8h40v40
		c0,4.4,3.6,8,8,8h48c4.4,0,8-3.6,8-8v-40h40c4.4,0,8-3.6,8-8v-48C320,247.6,316.4,244,312,244z M304,292h-40c-4.4,0-8,3.6-8,8v40
		h-32v-40c0-4.4-3.6-8-8-8h-40v-32h40c4.4,0,8-3.6,8-8v-40h32v40c0,4.4,3.6,8,8,8h40V292z"/>
	<path class="st1" d="M240,148c-70.7,0-128,57.3-128,128s57.3,128,128,128s128-57.3,128-128C367.9,205.3,310.7,148.1,240,148z
		 M240,388c-61.9,0-112-50.1-112-112s50.1-112,112-112s112,50.1,112,112C351.9,337.8,301.8,387.9,240,388z"/>
</g>
</svg>
