<?xml version="1.0" encoding="UTF-8"?>
<svg width="17px" height="15px" viewBox="0 0 17 15" version="1.1" xmlns="http://www.w3.org/2000/svg" xmlns:xlink="http://www.w3.org/1999/xlink">
    <!-- Generator: Sketch 50 (54983) - http://www.bohemiancoding.com/sketch -->
    <title>Shape</title>
    <desc>Created with Sketch.</desc>
    <defs></defs>
    <g id="Page-1" stroke="none" stroke-width="1" fill="none" fill-rule="evenodd">
        <g id="Patients" transform="translate(-355.000000, -3047.000000)" fill="#FF516A" fill-rule="nonzero">
            <g id="Group-18" transform="translate(220.000000, 2558.000000)">
                <g id="Group-17" transform="translate(105.000000, 139.000000)">
                    <g id="Group-16">
                        <g id="Group-15">
                            <g id="Path">
                                <g id="Mask">
                                    <g id="812341178">
                                        <g id="Group-28" transform="translate(0.000000, 246.000000)">
                                            <g id="Group-14" transform="translate(30.000000, 103.000000)">
                                                <path d="M15.7596641,2.47351037 C14.9211855,1.52329283 13.7579805,1 12.484375,1 C10.6931328,1 9.55908008,2.06847244 8.92317383,2.96483525 C8.7581875,3.19743195 8.61783789,3.43065873 8.5,3.65012336 C8.38216211,3.43065873 8.2418457,3.19743195 8.07682617,2.96483525 C7.44091992,2.06847244 6.30686719,1 4.515625,1 C3.24201953,1 2.07881445,1.52332599 1.24030273,2.47354353 C0.440505859,3.37998753 0,4.59397384 0,5.89185945 C0,7.30465061 0.552267578,8.618686 1.73801758,10.027133 C2.79776172,11.285954 4.32234961,12.583508 6.08779297,14.0860349 C6.74564648,14.6459383 7.42594531,15.224943 8.15020508,15.8578355 L8.17195312,15.8768703 C8.26585156,15.9589789 8.38292578,16 8.5,16 C8.61707422,16 8.73414844,15.9589457 8.82804687,15.8768703 L8.84979492,15.8578355 C9.57405469,15.224943 10.2543535,14.6459715 10.9123066,14.0859686 C12.6776504,12.5835411 14.2022383,11.2859872 15.2619824,10.027133 C16.4477324,8.61865284 17,7.30465061 17,5.89185945 C17,4.59397384 16.5594941,3.37998753 15.7596641,2.47351037 Z M10.2661738,13.3288189 C9.69906445,13.8114554 9.11541992,14.3081857 8.5,14.8425214 C7.88461328,14.308252 7.30093555,13.8114886 6.73372656,13.3287526 C3.27864258,10.3881984 0.99609375,8.44554836 0.99609375,5.89185945 C0.99609375,4.8363201 1.34821289,3.85592535 1.98760547,3.13130737 C2.63433594,2.39846527 3.53211523,1.99485329 4.515625,1.99485329 C5.88123633,1.99485329 6.76400781,2.83510638 7.26404688,3.5399931 C7.71258789,4.17218921 7.94663672,4.80949223 8.02645703,5.05412665 C8.09322852,5.25890062 8.28437891,5.39748368 8.5,5.39748368 C8.71562109,5.39748368 8.90677148,5.25890062 8.97354297,5.05412665 C9.05336328,4.80949223 9.28741211,4.17218921 9.73595312,3.53995994 C10.2359922,2.83510638 11.1187637,1.99485329 12.484375,1.99485329 C13.4678848,1.99485329 14.3656641,2.39846527 15.0123613,3.13130737 C15.6517871,3.85592535 16.0039062,4.8363201 16.0039062,5.89185945 C16.0039062,8.44554836 13.7213574,10.3881984 10.2661738,13.3288189 Z" id="Shape"></path>
                                            </g>
                                        </g>
                                    </g>
                                </g>
                            </g>
                        </g>
                    </g>
                </g>
            </g>
        </g>
    </g>
</svg>