<?xml version="1.0" encoding="utf-8"?>
<!-- Generator: Adobe Illustrator 22.0.1, SVG Export Plug-In . SVG Version: 6.00 Build 0)  -->
<svg version="1.1" id="Capa_1" xmlns="http://www.w3.org/2000/svg" xmlns:xlink="http://www.w3.org/1999/xlink" x="0px" y="0px"
	 viewBox="0 0 488 488" style="enable-background:new 0 0 488 488;" xml:space="preserve">
<style type="text/css">
	.st0{fill:#50C2FF;}
	.st1{fill:#3560FF;}
</style>
<path class="st0" d="M236.7,19.9c-44.2-0.2-80.1,35.5-80.3,79.7s35.5,80.1,79.7,80.3c43.4,0.2,79-34.3,80.3-77.6
	c0.1-0.7,0.1-1.4,0.1-2.2C316.6,56,280.9,20,236.7,19.9L236.7,19.9z"/>
<g>
	<path class="st1" d="M472,212.1v23.8c0,6.6-5.4,12-12,12v7.9c-0.2-70.1-54.4-133.4-135.7-159.3c-1.9-47.1-40.4-84.3-87.5-84.6h-0.3
		c-35.8-0.1-68.1,21.6-81.5,54.8c-15.5-12.3-34.6-19.1-54.4-19.2c-4.6,0-11.6,0-12.7,7.1c-0.1,0.8-0.1,1.7,0,2.6v82.4
		c-21.5,15.7-38.3,37-48.8,61.5l-33.3,9.1c-3.5,0.9-5.9,4.1-5.9,7.7v74.7c0,3.6,2.4,6.7,5.8,7.7l33,9.3c12.4,28.9,32.5,53.8,58,72.1
		l10.6,87.4c0.5,4,3.9,7,7.9,7H160c4.4,0,8-3.6,8-8v-8h32c4.4,0,8-3.6,8-8v-26.7c29.3,4,59,3.2,88-2.5v29.2c0,4.4,3.6,8,8,8h16
		c0,4.4,3.6,8,8,8h51.4c4,0,7.4-2.9,7.9-6.9l11.9-85.5C438,343.8,459.5,302,460,257.6v6.2c15.5,0,28-12.5,28-28v-23.8L472,212.1
		L472,212.1z M236.5,27.9h0.2c39.7,0.2,71.9,32.5,71.8,72.2c0,0.4,0,0.9-0.1,2c-0.9,39-32.9,70.1-71.9,69.8h-0.2
		c-39.7-0.1-71.9-32.3-71.8-72c0-5.7,0.7-11.4,2.1-17C174.3,50.5,203.3,27.8,236.5,27.9z M16,224l16-4.4V291l-16-4.5V224z
		 M176,444.1v-24.9c5.5,1.3,10.8,2.5,16,3.5v21.4H176z M312,444.1v-23.7c2.7-0.7,5.3-1.5,8-2.3v25.9H312z M386.8,365.2
		c-1.6,1.3-2.7,3.1-2.9,5.1l-11.4,81.7H344v-47.4c0-4.4-3.6-8-8-8c-0.9,0-1.9,0.2-2.7,0.5c-0.5,0.2-1.1,0.3-1.6,0.5
		c-2.4-1.3-5.2-1.2-7.6,0.1c-8.3,4-17.1,6.8-26.2,8.4c-17.8,3.8-36,5.7-54.3,5.7c-13.4-0.1-26.8-1.2-40.1-3.4
		c-0.6-0.4-1.3-0.6-2.1-0.8c-10.5-1.9-20.8-4.5-30.9-7.9c-1.7-0.5-3.5-0.4-5.2,0.3l-0.7-0.2l-2.7-0.7c-4.3-1.1-8.6,1.5-9.7,5.8
		c-0.2,0.6-0.2,1.3-0.2,2v53.1h-29.5l-10.2-83.8c-0.3-2.2-1.5-4.2-3.3-5.6c-25.4-17.4-45.2-42-56.7-70.6c-0.8-2-2.4-3.5-4.3-4.3V215
		c2.1-0.8,3.7-2.4,4.6-4.4c9.7-24.5,26.4-45.5,48.1-60.5c2.1-1.5,3.4-3.9,3.4-6.5v-80c17.3,0.7,33.7,7.8,46.1,19.9
		c-0.2,1.3-0.4,2.6-0.6,3.9c-0.1,1-0.3,1.9-0.4,2.9c-5.3,48.3,29.5,91.7,77.7,97.1c3.1,0.3,6.3,0.5,9.4,0.5h0.3
		c2.9,0,5.7-0.2,8.6-0.4c1-0.1,1.9-0.3,2.8-0.4c1.8-0.2,3.7-0.5,5.5-0.8c1.1-0.2,2.2-0.5,3.3-0.8c1.6-0.4,3.1-0.7,4.7-1.2
		c1.2-0.4,2.4-0.8,3.6-1.2c1.4-0.5,2.7-0.9,4.1-1.4s2.5-1,3.7-1.6s2.4-1.1,3.5-1.6c1.3-0.7,2.6-1.4,3.9-2.1c1-0.6,2-1.1,2.9-1.7
		c1.4-0.8,2.7-1.7,4-2.6c0.8-0.5,1.5-1.1,2.3-1.7c1.4-1.1,2.8-2.2,4.2-3.3c0.6-0.5,1.1-1,1.6-1.4c1.5-1.3,2.9-2.7,4.3-4.1
		c0.3-0.3,0.6-0.6,0.9-1c1.6-1.6,3.1-3.3,4.5-5.1l0.1-0.1c9.8-12.1,16.2-26.6,18.4-42c0-0.1,0.1-0.3,0.1-0.4
		c72.7,24.6,120.7,81.3,120.5,143.6C443.9,297.3,423.6,335.9,386.8,365.2L386.8,365.2z"/>
	<path class="st1" d="M112.1,179.9c-15.5,0-28,12.5-28,28h16c0-6.6,5.4-12,12-12s12,5.4,12,12h16
		C140.1,192.4,127.5,179.9,112.1,179.9z"/>
	<path class="st1" d="M368,164.1v16c17.7,0,32,14.3,32,32h16C416,185.6,394.5,164.1,368,164.1z"/>
	<path class="st1" d="M271.2,84.1v-5.4c0.1-13.4-9.9-24.6-23.2-26.2v-8.4h-16v8h-3.6c-14.6,0-26.4,11.8-26.5,26.4v3
		c0,14.6,11.8,26.5,26.4,26.5l3.7,0l12.7,0c5.8,0.1,10.4,4.7,10.4,10.5v3.1c0,5.8-4.7,10.4-10.5,10.4l-16.4-0.1
		c-5.8-0.1-10.4-4.7-10.4-10.5v-5.4h-16v5.4c0,14.6,11.8,26.5,26.4,26.5l3.8,0v8l16,0.1v-8.4c13.2-1.7,23-12.8,23.1-26.1v-3
		c0-14.6-11.8-26.5-26.4-26.5l-4.7,0l-11.7,0c-5.8-0.1-10.4-4.7-10.4-10.5v-3.1c0-5.8,4.7-10.4,10.5-10.4l16.4,0.1
		c5.8,0.1,10.4,4.7,10.4,10.5v5.4H271.2z"/>
</g>
</svg>
