<?xml version="1.0" encoding="utf-8"?>
<!-- Generator: Adobe Illustrator 22.0.1, SVG Export Plug-In . SVG Version: 6.00 Build 0)  -->
<svg version="1.1" id="Capa_1" xmlns="http://www.w3.org/2000/svg" xmlns:xlink="http://www.w3.org/1999/xlink" x="0px" y="0px"
	 viewBox="0 0 480 480" style="enable-background:new 0 0 480 480;" xml:space="preserve">
<style type="text/css">
	.st0{fill:#50C2FF;}
	.st1{fill:#3560FF;}
</style>
<g>
	<path class="st0" d="M184,360h112v64H184V360z"/>
</g>
<g>
	<path class="st1" d="M473,23c-4.5-4.5-10.5-7-16.9-7H23.8C10.7,16,0,26.7,0,39.8v304.3C0,357.3,10.7,368,23.8,368H176v48h-8
		c-4.4,0-8,3.6-8,8v24h-32v16h224v-16h-32v-24c0-4.4-3.6-8-8-8h-8v-48h152.2c13.2,0,23.8-10.7,23.8-23.8V39.8
		C480,33.5,477.5,27.5,473,23z M176,448v-16h128v16H176z M288,416h-96v-48h96V416z M464,344.2c0,4.3-3.5,7.8-7.8,7.8H23.8
		c-4.3,0-7.8-3.5-7.8-7.8V39.8c0-4.3,3.5-7.8,7.8-7.8h432.3c4.3,0,7.8,3.5,7.8,7.8V344.2z"/>
	<path class="st1" d="M48,288h384v16H48V288z"/>
	<path class="st1" d="M224,320h32v16h-32V320z"/>
</g>
<circle class="st0" cx="239.3" cy="173.9" r="40.9"/>
<g>
	<path class="st0" d="M214.5,125.3l-4.2-8.1c-3,1.5-5.8,3.3-8.5,5.2l5.4,7.3C209.5,128.1,211.9,126.6,214.5,125.3z"/>
	<path class="st0" d="M190.6,149.2l-8.1-4.1c-1.5,3-2.8,6.1-3.8,9.2l8.6,2.8C188.3,154.4,189.3,151.7,190.6,149.2z"/>
	<path class="st0" d="M200.7,135.4l-6.4-6.4c-2.4,2.4-4.5,4.9-6.5,7.6l7.4,5.3C196.8,139.6,198.7,137.4,200.7,135.4L200.7,135.4z"/>
	<path class="st0" d="M185.4,165.4l-9-1.4c-0.5,3.3-0.8,6.6-0.8,9.9v0.1l9.1-0.1C184.7,171.1,185,168.2,185.4,165.4z"/>
	<path class="st0" d="M230.7,120l-1.4-9c-3.3,0.5-6.5,1.3-9.7,2.3l2.8,8.6C225.1,121.1,227.8,120.5,230.7,120L230.7,120z"/>
	<path class="st0" d="M293.2,165.2l9-1.4c-0.5-3.3-1.3-6.5-2.4-9.7l-8.6,2.8C292.1,159.6,292.7,162.4,293.2,165.2L293.2,165.2z"/>
	<path class="st0" d="M284.2,128.8c-2.4-2.4-4.9-4.5-7.6-6.5l-5.3,7.4c2.3,1.7,4.5,3.5,6.5,5.6L284.2,128.8z"/>
	<path class="st0" d="M268.1,117.1c-3-1.5-6.1-2.8-9.2-3.8l-2.8,8.6c2.7,0.9,5.4,2,7.9,3.3L268.1,117.1z"/>
	<path class="st0" d="M247.7,120l1.4-9c-3.3-0.5-6.5-0.8-9.8-0.8h-0.1l0.1,9.1C242.1,119.3,244.9,119.5,247.7,120z"/>
	<path class="st0" d="M287.9,149l8.1-4.2c-1.5-3-3.3-5.8-5.3-8.5l-7.3,5.4C285,144,286.5,146.5,287.9,149L287.9,149z"/>
	<path class="st0" d="M278,212.3l6.5,6.4c2.3-2.4,4.5-4.9,6.5-7.6l-7.4-5.3C281.9,208.1,280,210.3,278,212.3L278,212.3z"/>
	<path class="st0" d="M264.2,222.4l4.2,8.1c3-1.5,5.8-3.3,8.5-5.3l-5.4-7.3C269.2,219.6,266.8,221.1,264.2,222.4L264.2,222.4z"/>
	<path class="st0" d="M288,198.5l8.1,4.1c1.5-3,2.8-6.1,3.8-9.2l-8.7-2.8C290.4,193.3,289.3,195.9,288,198.5L288,198.5z"/>
	<path class="st0" d="M248.1,227.8l1.5,9c3.3-0.5,6.5-1.3,9.7-2.4l-2.8-8.6C253.6,226.6,250.9,227.3,248.1,227.8L248.1,227.8z"/>
	<path class="st0" d="M185.4,182.5l-9,1.4c0.5,3.3,1.3,6.5,2.3,9.7l8.6-2.8C186.5,188.1,185.9,185.3,185.4,182.5L185.4,182.5z"/>
	<path class="st0" d="M293.9,173.9c0,2.8-0.2,5.6-0.6,8.4l9,1.4c0.5-3.3,0.7-6.6,0.7-9.9h-1.6L293.9,173.9z"/>
	<path class="st0" d="M230.8,227.8l-1.4,9c3.3,0.5,6.6,0.8,9.9,0.8h0.2l-0.2-9.1C236.4,228.5,233.6,228.2,230.8,227.8L230.8,227.8z"
		/>
	<path class="st0" d="M190.7,198.7l-8.1,4.1c1.5,3,3.3,5.8,5.2,8.5l7.4-5.4C193.5,203.7,192,201.2,190.7,198.7L190.7,198.7z"/>
	<path class="st0" d="M194.3,218.9c2.4,2.4,4.9,4.5,7.6,6.5l5.4-7.4c-2.3-1.7-4.5-3.5-6.5-5.6L194.3,218.9z"/>
	<path class="st0" d="M210.4,230.6c3,1.5,6.1,2.8,9.2,3.8l2.8-8.6c-2.7-0.9-5.4-2-7.9-3.3L210.4,230.6z"/>
	<path class="st1" d="M239.3,128.4c-25.1,0-45.5,20.4-45.5,45.5s20.4,45.5,45.5,45.5s45.5-20.4,45.5-45.5
		C284.7,148.8,264.4,128.4,239.3,128.4z M239.3,210.3c-20.1,0-36.4-16.3-36.4-36.4s16.3-36.4,36.4-36.4c20.1,0,36.4,16.3,36.4,36.4
		C275.7,194,259.4,210.2,239.3,210.3z"/>
	<path class="st1" d="M257.5,169.3h9.1v9.1h-9.1V169.3z"/>
	<path class="st1" d="M212,169.3h9.1v9.1H212V169.3z"/>
	<path class="st1" d="M239.3,87.5v-9.1c-4.8,0-9.6,0.3-14.4,0.8l1,9C230.4,87.7,234.8,87.5,239.3,87.5z"/>
	<path class="st1" d="M217.3,89.4l-1.6-9c-50.4,8.7-91.5,43.5-111.6,63.4l6.4,6.4C129.9,131.1,169.4,97.7,217.3,89.4L217.3,89.4z"/>
	<path class="st1" d="M374.7,171c-11.8-13.8-25-26.2-39.4-37.1c-22.3-17-57.1-37.3-96-37.3s-73.7,20.3-96,37.3
		c-14.4,10.9-27.6,23.4-39.4,37.2l-2.3,2.9l2.3,2.9c11.7,13.8,25,26.2,39.4,37.2c22.3,17,57.1,37.3,96,37.3s73.7-20.3,96-37.3
		c14.4-10.9,27.6-23.4,39.4-37.1l2.3-2.9L374.7,171z M239.3,242.1c-61.6,0-114.1-54.9-125.9-68.2c11.8-13.3,64.2-68.2,125.9-68.2
		s114.1,54.9,125.9,68.2C353.4,187.2,300.9,242.1,239.3,242.1z"/>
</g>
<path class="st1" d="M230.8,189.3l7.6,3.8c0.5,0.2,1,0.2,1.5,0l7.6-3.8c3.9-1.9,6.3-5.9,6.3-10.2v-18.4c0-0.7-0.4-1.3-1.1-1.5
	l-13-4.9c-0.4-0.1-0.8-0.1-1.1,0l-13,4.9c-0.6,0.2-1.1,0.8-1.1,1.5v18.4C224.4,183.4,226.9,187.4,230.8,189.3L230.8,189.3z
	 M246,186.4l-5.3,2.6v-16.9h9.8v7C250.6,182.2,248.8,185,246,186.4L246,186.4z M250.5,168.8h-9.8v-10.7l9.8,3.7V168.8z M237.5,158.1
	v10.7h-9.8v-7L237.5,158.1z M227.7,172.1h9.8V189l-5.3-2.6c-2.8-1.4-4.5-4.2-4.5-7.3V172.1z"/>
</svg>
