<?xml version="1.0" encoding="utf-8"?>
<!-- Generator: Adobe Illustrator 22.0.1, SVG Export Plug-In . SVG Version: 6.00 Build 0)  -->
<svg version="1.1" id="Capa_1" xmlns="http://www.w3.org/2000/svg" xmlns:xlink="http://www.w3.org/1999/xlink" x="0px" y="0px"
	 viewBox="0 0 490.7 490.7" style="enable-background:new 0 0 490.7 490.7;" xml:space="preserve">
<style type="text/css">
	.st0{fill:#3560FF;}
	.st1{fill:#50C2FF;}
</style>
<path class="st0" d="M480,170.7H74.7c-5.9,0-10.7,4.8-10.7,10.7v213.3c0,5.9,4.8,10.7,10.7,10.7H480c5.9,0,10.7-4.8,10.7-10.7V181.3
	C490.7,175.4,485.9,170.7,480,170.7z M469.3,384h-384V192h384V384z"/>
<g>
	<path class="st1" d="M437.3,160h21.3v-21.3c0-5.9-4.8-10.7-10.7-10.7H42.7c-5.9,0-10.7,4.8-10.7,10.7V352c0,5.9,4.8,10.7,10.7,10.7
		h10.7V149.3h384L437.3,160L437.3,160z"/>
	<path class="st1" d="M405.3,117.3h21.3V96c0-5.9-4.8-10.7-10.7-10.7H10.7C4.8,85.3,0,90.1,0,96v213.3c0,5.9,4.8,10.7,10.7,10.7
		h10.7V106.7h384L405.3,117.3L405.3,117.3z"/>
</g>
<g>
	<path class="st0" d="M277.3,362.7c41.2,0,74.7-33.4,74.7-74.7s-33.4-74.7-74.7-74.7s-74.7,33.4-74.7,74.7l0,0
		C202.7,329.2,236.1,362.6,277.3,362.7z M277.3,234.7c29.5,0,53.3,23.9,53.3,53.3s-23.9,53.3-53.3,53.3S224,317.5,224,288
		C224,258.6,247.9,234.7,277.3,234.7z"/>
	<path class="st0" d="M117.3,330.7c11.8,0,21.3,9.6,21.3,21.3c0,5.9,4.8,10.7,10.7,10.7h64v-21.3h-54.7c-3.9-15-15.6-26.7-30.6-30.6
		v-45.4c15-3.9,26.7-15.6,30.6-30.6h54.7v-21.3h-64c-5.9,0-10.7,4.8-10.7,10.7c0,11.8-9.6,21.3-21.3,21.3c-5.9,0-10.7,4.8-10.7,10.7
		v64C106.7,325.9,111.4,330.7,117.3,330.7z"/>
	<path class="st0" d="M426.7,265.3v45.4c-15,3.9-26.7,15.6-30.6,30.6h-54.7v21.3h64c5.9,0,10.7-4.8,10.7-10.7
		c0-11.8,9.6-21.3,21.3-21.3c5.9,0,10.7-4.8,10.7-10.7v-64c0-5.9-4.8-10.7-10.7-10.7c-11.8,0-21.3-9.6-21.3-21.3
		c0-5.9-4.8-10.7-10.7-10.7h-64v21.3H396C399.9,249.7,411.7,261.4,426.7,265.3z"/>
</g>
<g>
	<path class="st1" d="M426.7,213.3H448v21.3h-21.3V213.3z"/>
	<path class="st1" d="M426.7,341.3H448v21.3h-21.3V341.3z"/>
	<path class="st1" d="M106.7,341.3H128v21.3h-21.3V341.3z"/>
	<path class="st1" d="M106.7,213.3H128v21.3h-21.3V213.3z"/>
</g>
</svg>
