<?xml version="1.0" encoding="utf-8"?>
<!-- Generator: Adobe Illustrator 22.0.1, SVG Export Plug-In . SVG Version: 6.00 Build 0)  -->
<svg version="1.1" id="Capa_1" xmlns="http://www.w3.org/2000/svg" xmlns:xlink="http://www.w3.org/1999/xlink" x="0px" y="0px"
	 viewBox="0 0 480 480" style="enable-background:new 0 0 480 480;" xml:space="preserve">
<style type="text/css">
	.st0{fill:#50C2FF;}
	.st1{fill:#3560FF;}
	.st2{fill:#1E81CE;}
</style>
<g>
	<path class="st0" d="M176,72c0,11.2,2.9,22.3,8.6,32c5.5,9.8,13.6,17.9,23.4,23.4c9.7,5.7,20.8,8.7,32,8.6h48c53,0,96-42.9,96-95.8
		c0-0.1,0-0.1,0-0.2V8H240C204.7,8,176,36.7,176,72z"/>
	<path class="st0" d="M144,104h40.6c-5.7-9.7-8.7-20.8-8.6-32c0-18.4,7.9-35.9,21.7-48H168c-26.5,0-48,21.5-48,48v88
		c0,2.9,1.6,5.5,4.1,7c5.7-4.5,12.7-6.9,19.9-7V104z"/>
	<path class="st0" d="M336,123.2V160h16c4.4,0,8-3.6,8-8v-48h-0.4C352.8,111.6,344.8,118.1,336,123.2z"/>
	<circle class="st0" cx="288" cy="168" r="8"/>
	<circle class="st0" cx="192" cy="168" r="8"/>
	<path class="st0" d="M453.9,390.6c-8.1-36.6-40.6-62.6-78.1-62.6H304v8c-0.1,17.7-14.3,31.9-32,32h-64c-17.7-0.1-31.9-14.3-32-32
		v-8h-71.8c-37.5,0-69.9,26-78.1,62.6L8,472h464L453.9,390.6z M352,408c-8.8,0-16-7.2-16-16s7.2-16,16-16s16,7.2,16,16
		S360.8,408,352,408z"/>
</g>
<g>
	<circle class="st0" cx="288" cy="168" r="16"/>
	<circle class="st0" cx="192" cy="168" r="16"/>
	<path class="st1" d="M461.7,388.9c-8.8-40.4-44.6-69.1-85.9-68.9H312v-16.8c18.6-3.8,32-20.2,32-39.2v-32.8
		c21.6-4.4,35.6-25.4,31.2-47c-1.6-8.1-5.7-15.5-11.7-21.1c2.9-3,4.5-7,4.5-11.1v-45.6c15.5-18.6,24-42.1,24-66.4V8c0-4.4-3.6-8-8-8
		H240c-16.4,0-32.3,5.7-45.1,16H168c-30.9,0-56,25.1-56,56v88c0,2.2,0.5,4.3,1.4,6.3c-14.2,16.9-12.1,42.1,4.7,56.3
		c5.1,4.3,11.3,7.3,17.8,8.6V264c0,19,13.4,35.4,32,39.2V320h-63.8c-41.3-0.2-77.1,28.6-85.9,68.9L0.2,470.3c-1,4.3,1.8,8.6,6.1,9.5
		c0.6,0.1,1.2,0.2,1.7,0.2h464c4.4,0,8-3.6,8-8c0-0.6-0.1-1.2-0.2-1.7L461.7,388.9z M360,392c0,4.4-3.6,8-8,8s-8-3.6-8-8s3.6-8,8-8
		S360,387.6,360,392z M184,304h112v32c0,13.3-10.7,24-24,24h-64c-13.3,0-24-10.7-24-24V304z M350.2,123.3c0.6-0.4,1.2-0.8,1.8-1.3
		v30h-8v-24.3c0.4-0.3,0.8-0.6,1.3-0.9C346.9,125.7,348.6,124.5,350.2,123.3z M344,214.6v-45.3c12.5,4.4,19.1,18.1,14.6,30.6
		C356.2,206.8,350.8,212.2,344,214.6L344,214.6z M376,16v24c0,21.6-8,42.5-22.4,58.7c-2.2,2.4-4.5,4.7-7,6.9
		c-16.1,14.5-37,22.5-58.6,22.4h-48c-9.9,0-19.6-2.6-28.1-7.6c-4.2-2.4-8.1-5.3-11.5-8.7c-3.5-3.5-6.5-7.4-8.8-11.7
		c-5-8.5-7.6-18.1-7.5-27.9c0-30.9,25.1-56,56-56H376z M128,72c0-22.1,17.9-40,40-40h12.1c-0.3,0.4-0.5,0.9-0.7,1.3
		c-1.4,2.1-2.6,4.3-3.7,6.6c-0.3,0.6-0.6,1.2-0.9,1.7c-1.3,2.8-2.4,5.8-3.4,8.7c-0.2,0.7-0.4,1.4-0.6,2.1c-0.7,2.4-1.2,4.9-1.7,7.3
		c-0.2,0.9-0.3,1.7-0.4,2.6c-0.4,3.2-0.7,6.3-0.7,9.5c0,2.8,0.2,5.6,0.6,8.4c0.1,0.7,0.2,1.3,0.3,2c0.4,2.7,0.9,5.4,1.6,8
		c0.1,0.4,0.2,0.8,0.4,1.2c0.4,1.5,0.8,2.9,1.3,4.4H144c-4.4,0-8,3.6-8,8v48.8c-0.5,0.1-1,0.4-1.6,0.5c-1.8,0.4-3.5,1-5.2,1.7
		c-0.4,0.2-0.8,0.2-1.2,0.4L128,72z M120,192c0-7.3,3.3-14.2,9-18.7c1.1-0.8,2.2-1.6,3.4-2.3c0.4-0.2,0.9-0.4,1.3-0.6
		c0.8-0.4,1.5-0.7,2.3-1v45.2C126.4,211.2,120,202.2,120,192z M152,264V112h28.1c0.6,0.9,1.2,1.7,1.8,2.5c0.5,0.7,0.9,1.3,1.4,2
		c1.7,2.3,3.6,4.4,5.6,6.5c4.4,4.4,9.4,8.2,14.9,11.3c10.9,6.4,23.4,9.8,36.1,9.8h48c4.1,0,8.2-0.3,12.3-0.8
		c1.2-0.1,2.4-0.3,3.6-0.5c3-0.5,6-1,8.9-1.8c1.2-0.3,2.4-0.6,3.5-0.9c3.8-1,7.5-2.3,11.2-3.8l0.4-0.2h0.1V264c0,13.3-10.7,24-24,24
		H176C162.7,288,152,277.3,152,264L152,264z M382.8,464l-6.9-41.3l-15.8,2.6l6.4,38.7H113.4l6.4-38.7l-15.8-2.6L97.2,464H18
		l15.9-71.6c7.2-33,36.5-56.5,70.3-56.4H120v16c-30.9,0-56,25.1-56,56v40c0,4.4,3.6,8,8,8h16v-16h-8v-32c0-22.1,17.9-40,40-40h16
		c22.1,0,40,17.9,40,40v32h-8v16h16c4.4,0,8-3.6,8-8v-40c0-30.9-25.1-56-56-56v-16h32c0,22.1,17.9,40,40,40h64c22.1,0,40-17.9,40-40
		h32v33.5c-12.5,4.4-19,18.1-14.6,30.6c4.4,12.5,18.1,19,30.6,14.6c12.5-4.4,19-18.1,14.6-30.6c-2.4-6.8-7.8-12.2-14.6-14.6V336
		h15.8c33.8-0.1,63.1,23.4,70.3,56.4L462,464H382.8z"/>
	<path class="st2" d="M296,432h48v16h-48V432z"/>
	<path class="st2" d="M264,432h16v16h-16V432z"/>
</g>
</svg>
