<?xml version="1.0" encoding="utf-8"?>
<!-- Generator: Adobe Illustrator 22.0.1, SVG Export Plug-In . SVG Version: 6.00 Build 0)  -->
<svg version="1.1" id="Capa_1" xmlns="http://www.w3.org/2000/svg" xmlns:xlink="http://www.w3.org/1999/xlink" x="0px" y="0px"
	 viewBox="0 0 424 424" style="enable-background:new 0 0 424 424;" xml:space="preserve">
<style type="text/css">
	.st0{fill:#50C2FF;}
	.st1{fill:#3460FF;}
</style>
<g>
	<path class="st0" d="M356,32h-48h-48h-48h-48h-48H68H20v72h384V32H356z"/>
</g>
<g>
	<path class="st1" d="M412.7,20h-40V-4h-16v24h-32V-4h-16v24h-32V-4h-16v24h-32V-4h-16v24h-32V-4h-16v24h-32V-4h-16v24h-32V-4h-16
		v24h-40c-4.4,0-8,3.6-8,8v384c0,4.4,3.6,8,8,8h384c4.4,0,8-3.6,8-8V28C420.7,23.6,417.1,20,412.7,20z M68.7,36v24h16V36h32v24h16
		V36h32v24h16V36h32v24h16V36h32v24h16V36h32v24h16V36h32v24h16V36h32v56h-368V36H68.7z M36.7,404V108h368v296H36.7z"/>
</g>
<g>
	<path class="st0" d="M219.2,291.2c4.6-0.3,8.8-2.7,11.5-6.4l41.2-57c1.2-1.7,1.1-4.1-0.5-5.7c-1.5-1.5-3.9-1.7-5.7-0.5l-57,41.2
		c-3.7,2.7-6,6.9-6.4,11.5c-0.4,4.6,1.3,9.1,4.6,12.3c2.9,2.9,6.9,4.6,11.1,4.6C218.4,291.2,218.8,291.2,219.2,291.2L219.2,291.2z
		 M211.1,275c0.2-2,1.2-3.8,2.8-5l34.7-25.1l-25.1,34.7c-1.2,1.6-3,2.6-5,2.8c-2,0.1-4-0.6-5.4-2C211.7,279,210.9,277,211.1,275
		L211.1,275z M211.1,275"/>
	<path class="st0" d="M317.7,210.1c0-0.1,0-0.2-0.1-0.3c-0.1-0.1-0.1-0.2-0.2-0.2c-4.4-7.6-9.7-14.7-15.7-21.2l9.4-9.4l6.2,6.2
		l18.7-18.7l-18.7-18.6l-18.7,18.6l6.2,6.2l-9.5,9.5c-6.4-6-13.5-11.2-21.2-15.7c-0.1-0.1-0.1-0.1-0.2-0.2c-0.1-0.1-0.2-0.1-0.3-0.1
		c-13.6-7.8-28.9-13.1-45.2-15V146h6.6c6.1,0,11-4.9,11-11c0-6.1-4.9-11-11-11h-39.6c-6.1,0-11,4.9-11,11c0,6.1,4.9,11,11,11h6.6
		v5.1c-4.7,0.5-9.5,1.3-14.2,2.3c-2.4,0.6-3.9,2.9-3.3,5.3c0.5,2.4,2.9,3.9,5.3,3.3c4-0.9,8.1-1.6,12.2-2.1l4.7-0.4
		c1.4-0.1,2.8-0.2,4.1-0.3v8.7c0,2.4,2,4.4,4.4,4.4c2.4,0,4.4-2,4.4-4.4v-8.7c16.5,0.7,32.1,5.2,46,12.5l-4.3,7.5
		c-1.2,2.1-0.5,4.8,1.6,6c0.7,0.4,1.5,0.6,2.2,0.6c1.5,0,3-0.8,3.8-2.2l4.3-7.5c13.8,8.7,25.5,20.4,34.2,34.2l-7.5,4.3
		c-2.1,1.2-2.8,3.9-1.6,6c0.8,1.4,2.3,2.2,3.8,2.2c0.8,0,1.5-0.2,2.2-0.6l7.5-4.3c7.4,14.1,11.9,29.9,12.5,46.7H316
		c-2.4,0-4.4,2-4.4,4.4c0,2.4,2,4.4,4.4,4.4h8.7c-0.7,16.8-5.1,32.7-12.5,46.7l-7.5-4.3c-2.1-1.2-4.8-0.5-6,1.6
		c-1.2,2.1-0.5,4.8,1.6,6l7.5,4.3c-8.7,13.8-20.4,25.5-34.2,34.2l-4.3-7.5c-1.2-2.1-3.9-2.8-6-1.6c-2.1,1.2-2.8,3.9-1.6,6l4.3,7.5
		c-13.9,7.3-29.5,11.7-46,12.5v-8.7c0-2.4-2-4.4-4.4-4.4c-2.4,0-4.4,2-4.4,4.4v8.7c-7-0.2-14.1-1.1-21-2.7c-2.4-0.6-4.7,0.9-5.3,3.3
		c-0.5,2.4,0.9,4.7,3.3,5.3c8.8,2,17.8,3.1,26.7,3.1c0.2,0,0.4,0,0.6,0c0,0,0,0,0.1,0c0,0,0.1,0,0.1,0c21.1-0.1,41-5.9,58.2-15.7
		c0.1-0.1,0.3-0.1,0.4-0.2c0.1,0,0.2-0.1,0.2-0.2c17.8-10.4,32.6-25.2,43-42.9c0.1-0.1,0.2-0.2,0.3-0.3c0.1-0.1,0.1-0.2,0.1-0.3
		c10.1-17.4,15.8-37.6,15.8-59.1C333.6,247.7,327.8,227.5,317.7,210.1L317.7,210.1z M317.4,160.3l6.2,6.2l-6.2,6.2l-6.2-6.2
		L317.4,160.3z M211.1,150.5v-13.3h-15.4c-1.2,0-2.2-1-2.2-2.2c0-1.2,1-2.2,2.2-2.2h39.6c1.2,0,2.2,1,2.2,2.2c0,1.2-1,2.2-2.2,2.2
		h-15.4v13.3c-1.5-0.1-3-0.1-4.4-0.1c-0.1,0-0.3,0-0.4,0c-0.1,0-0.2,0-0.3,0c-0.7,0-1.4,0-2.2,0.1
		C212.1,150.5,211.6,150.5,211.1,150.5L211.1,150.5z M211.1,150.5"/>
	<path class="st0" d="M175.9,185.6h-22c-2.4,0-4.4,2-4.4,4.4c0,2.4,2,4.4,4.4,4.4h22c2.4,0,4.4-2,4.4-4.4
		C180.3,187.6,178.3,185.6,175.9,185.6L175.9,185.6z M175.9,185.6"/>
	<path class="st0" d="M175.9,216.4h-44c-2.4,0-4.4,2-4.4,4.4c0,2.4,2,4.4,4.4,4.4h44c2.4,0,4.4-2,4.4-4.4
		C180.3,218.4,178.3,216.4,175.9,216.4L175.9,216.4z M175.9,216.4"/>
	<path class="st0" d="M175.9,247.2h-66c-2.4,0-4.4,2-4.4,4.4c0,2.4,2,4.4,4.4,4.4h66c2.4,0,4.4-2,4.4-4.4
		C180.3,249.2,178.3,247.2,175.9,247.2L175.9,247.2z M175.9,247.2"/>
	<path class="st0" d="M175.9,278H92.3c-2.4,0-4.4,2-4.4,4.4c0,2.4,2,4.4,4.4,4.4h83.6c2.4,0,4.4-2,4.4-4.4
		C180.3,280,178.3,278,175.9,278L175.9,278z M175.9,278"/>
	<path class="st0" d="M175.9,308.8h-57.2c-2.5,0-4.4,2-4.4,4.4c0,2.5,2,4.4,4.4,4.4h57.2c2.4,0,4.4-2,4.4-4.4
		C180.3,310.8,178.3,308.8,175.9,308.8L175.9,308.8z M175.9,308.8"/>
	<path class="st0" d="M175.9,339.6h-30.8c-2.4,0-4.4,2-4.4,4.4c0,2.4,2,4.4,4.4,4.4h30.8c2.4,0,4.4-2,4.4-4.4
		C180.3,341.6,178.3,339.6,175.9,339.6L175.9,339.6z M175.9,339.6"/>
</g>
</svg>
