<?xml version="1.0" encoding="UTF-8"?>
<svg width="24px" height="20px" viewBox="0 0 24 20" version="1.1" xmlns="http://www.w3.org/2000/svg" xmlns:xlink="http://www.w3.org/1999/xlink">
    <!-- Generator: Sketch 50 (54983) - http://www.bohemiancoding.com/sketch -->
    <title>Shape</title>
    <desc>Created with Sketch.</desc>
    <defs></defs>
    <g id="Page-1" stroke="none" stroke-width="1" fill="none" fill-rule="evenodd">
        <g id="Médecins" transform="translate(-440.000000, -621.000000)" fill="#FFFFFF" fill-rule="nonzero">
            <g id="Group-3" transform="translate(220.000000, 285.000000)">
                <g id="Group" transform="translate(0.000000, 316.000000)">
                    <path d="M242.787844,24.9494949 L237.142857,24.9494949 L237.142857,21.2121212 C237.142857,20.5454545 236.616416,20 235.930701,20 L228.24239,20 C227.556675,20 226.961039,20.5454545 226.961039,21.2121212 L226.961039,24.9494949 L221.281351,24.9494949 C220.592727,24.9494949 220,25.4922222 220,26.1616162 L220,38.7878788 C220,39.4572727 220.592727,40 221.281351,40 L242.787844,40 C243.476468,40 244,39.4572727 244,38.7878788 L244,26.1616162 C244,25.4922222 243.476468,24.9494949 242.787844,24.9494949 Z M228.623377,21.6161616 L235.480519,21.6161616 L235.480519,24.9494949 L228.623377,24.9494949 L228.623377,21.6161616 Z M236.311688,34.1414141 L233.714286,34.1414141 L233.714286,36.6666667 L230.285714,36.6666667 L230.285714,34.1414141 L227.688312,34.1414141 L227.688312,30.8080808 L230.285714,30.8080808 L230.285714,28.2828283 L233.714286,28.2828283 L233.714286,30.8080808 L236.311688,30.8080808 L236.311688,34.1414141 Z" id="Shape"></path>
                </g>
            </g>
        </g>
    </g>
</svg>