<?xml version="1.0" encoding="utf-8"?>
<!-- Generator: Adobe Illustrator 22.0.1, SVG Export Plug-In . SVG Version: 6.00 Build 0)  -->
<svg version="1.1" id="Capa_1" xmlns="http://www.w3.org/2000/svg" xmlns:xlink="http://www.w3.org/1999/xlink" x="0px" y="0px"
	 viewBox="0 0 479.5 479.5" style="enable-background:new 0 0 479.5 479.5;" xml:space="preserve">
<style type="text/css">
	.st0{fill:#50C2FF;}
	.st1{fill:#3560FF;}
</style>
<path class="st0" d="M343.8,223.5h48v-40h40v-48h-40v-40h-48v40h-40v48h40V223.5z"/>
<g>
	<path class="st1" d="M449.1,78.4c-40.6-40.5-106.4-40.5-147.1,0l-62.2,62.2l-62.2-62.2c-40.6-40.6-106.5-40.6-147.1,0
		s-40.6,106.5,0,147.1l203.6,203.6c3.1,3.1,8.2,3.1,11.3,0l203.6-203.6C489.6,184.9,489.6,119.1,449.1,78.4L449.1,78.4z
		 M437.8,214.2l-198,198l-198-198c-34.4-34.4-34.4-90.1,0-124.5s90.1-34.4,124.5,0l67.9,67.9c3.1,3.1,8.2,3.1,11.3,0l67.9-67.9
		c34.4-34.4,90.1-34.4,124.5,0S472.1,179.8,437.8,214.2L437.8,214.2z"/>
	<path class="st1" d="M53.1,101.1c-20.3,20.3-26.6,50.7-16,77.4l14.9-5.9c-11.3-28.5,2.5-60.8,30.9-72.5l-6-14.8
		C67.9,88.9,59.8,94.3,53.1,101.1z"/>
	<path class="st1" d="M431.8,127.5h-32v-32c0-4.4-3.6-8-8-8h-48c-4.4,0-8,3.6-8,8v32h-32c-4.4,0-8,3.6-8,8v48c0,4.4,3.6,8,8,8h32v32
		c0,4.4,3.6,8,8,8h48c4.4,0,8-3.6,8-8v-32h32c4.4,0,8-3.6,8-8v-48C439.8,131.1,436.2,127.5,431.8,127.5z M423.8,175.5h-32
		c-4.4,0-8,3.6-8,8v32h-32v-32c0-4.4-3.6-8-8-8h-32v-32h32c4.4,0,8-3.6,8-8v-32h32v32c0,4.4,3.6,8,8,8h32V175.5z"/>
</g>
</svg>
